<svg width="1391" height="81" viewBox="0 0 1391 81" fill="none" xmlns="http://www.w3.org/2000/svg">
<g clip-path="url(#clip0_45_2588)">
<path d="M128.155 60.5352C122.108 66.5823 111.867 66.5582 109.007 58.4989C108.447 56.921 107.999 55.2986 107.67 53.6431C106.325 46.8837 107.015 39.8776 109.652 33.5104C112.29 27.1434 116.756 21.7013 122.486 17.8725C128.217 14.0436 134.954 12 141.845 12C148.737 12 155.474 14.0436 161.204 17.8725C166.934 21.7013 171.4 27.1434 174.038 33.5106C176.675 39.8776 177.365 46.8837 176.021 53.6431C175.691 55.2986 175.244 56.921 174.684 58.4989C171.823 66.5582 161.582 66.5823 155.535 60.5352L146.201 51.2008C145.309 50.309 145.401 48.8382 145.647 47.6013C145.797 46.8494 145.72 46.07 145.426 45.3617C145.133 44.6533 144.636 44.0479 143.999 43.622C143.361 43.1961 142.612 42.9687 141.845 42.9687C141.079 42.9687 140.329 43.1961 139.692 43.622C139.054 44.0479 138.557 44.6533 138.264 45.3617C137.97 46.07 137.894 46.8494 138.043 47.6013C138.289 48.8382 138.381 50.309 137.489 51.2008L128.155 60.5352Z" fill="url(#paint0_linear_45_2588)"/>
<path d="M205.039 52.1694H214.406V57.689H197.889V28.3354H205.039V52.1694Z" fill="#3A3B7B"/>
<path d="M227.183 58.0233C224.897 58.0233 222.834 57.5355 220.994 56.5598C219.182 55.5842 217.747 54.1904 216.687 52.3784C215.656 50.5664 215.14 48.4479 215.14 46.0225C215.14 43.6253 215.67 41.5205 216.729 39.7086C217.788 37.8689 219.238 36.4611 221.078 35.4854C222.918 34.5098 224.98 34.022 227.266 34.022C229.552 34.022 231.615 34.5098 233.455 35.4854C235.295 36.4611 236.744 37.8689 237.803 39.7086C238.863 41.5205 239.392 43.6253 239.392 46.0225C239.392 48.4199 238.849 50.5385 237.762 52.3784C236.702 54.1904 235.239 55.5842 233.371 56.5598C231.531 57.5355 229.468 58.0233 227.183 58.0233ZM227.183 51.8347C228.548 51.8347 229.705 51.3331 230.653 50.3295C231.629 49.3259 232.117 47.8904 232.117 46.0225C232.117 44.1549 231.643 42.7193 230.695 41.7158C229.775 40.7122 228.632 40.2104 227.266 40.2104C225.872 40.2104 224.716 40.7122 223.796 41.7158C222.876 42.6914 222.416 44.1269 222.416 46.0225C222.416 47.8904 222.862 49.3259 223.754 50.3295C224.674 51.3331 225.817 51.8347 227.183 51.8347Z" fill="#3A3B7B"/>
<path d="M250.795 34.022C252.44 34.022 253.876 34.3565 255.102 35.0256C256.357 35.6944 257.319 36.5727 257.988 37.6597V34.3565H265.138V57.6468C265.138 59.7933 264.706 61.7309 263.842 63.459C263.005 65.2153 261.709 66.6091 259.953 67.6404C258.225 68.6719 256.064 69.1877 253.472 69.1877C250.015 69.1877 247.213 68.3654 245.067 66.7207C242.921 65.1037 241.694 62.9015 241.387 60.1139H248.454C248.677 61.0059 249.207 61.7029 250.043 62.2047C250.879 62.7342 251.911 62.9991 253.137 62.9991C254.615 62.9991 255.785 62.567 256.65 61.7029C257.542 60.8666 257.988 59.5147 257.988 57.6468V54.3437C257.291 55.4307 256.329 56.3229 255.102 57.0197C253.876 57.6888 252.44 58.0233 250.795 58.0233C248.872 58.0233 247.13 57.5355 245.569 56.5598C244.008 55.5562 242.767 54.1484 241.847 52.3365C240.955 50.4968 240.509 48.3782 240.509 45.9808C240.509 43.5834 240.955 41.4788 241.847 39.6669C242.767 37.8549 244.008 36.4611 245.569 35.4854C247.13 34.5098 248.872 34.022 250.795 34.022ZM257.988 46.0225C257.988 44.2385 257.486 42.8307 256.482 41.7994C255.507 40.7681 254.308 40.2523 252.886 40.2523C251.465 40.2523 250.252 40.7681 249.248 41.7994C248.273 42.803 247.785 44.1968 247.785 45.9808C247.785 47.7648 248.273 49.1866 249.248 50.2459C250.252 51.2772 251.465 51.793 252.886 51.793C254.308 51.793 255.507 51.2772 256.482 50.2459C257.486 49.2143 257.988 47.8068 257.988 46.0225Z" fill="#3A3B7B"/>
<path d="M279.677 58.0233C277.391 58.0233 275.329 57.5355 273.489 56.5598C271.677 55.5842 270.241 54.1904 269.182 52.3784C268.151 50.5664 267.635 48.4479 267.635 46.0225C267.635 43.6253 268.164 41.5205 269.224 39.7086C270.283 37.8689 271.733 36.4611 273.572 35.4854C275.412 34.5098 277.475 34.022 279.761 34.022C282.047 34.022 284.11 34.5098 285.949 35.4854C287.789 36.4611 289.239 37.8689 290.298 39.7086C291.357 41.5205 291.887 43.6253 291.887 46.0225C291.887 48.4199 291.343 50.5385 290.256 52.3784C289.197 54.1904 287.733 55.5842 285.866 56.5598C284.026 57.5355 281.963 58.0233 279.677 58.0233ZM279.677 51.8347C281.043 51.8347 282.2 51.3331 283.148 50.3295C284.124 49.3259 284.611 47.8904 284.611 46.0225C284.611 44.1549 284.137 42.7193 283.19 41.7158C282.27 40.7122 281.127 40.2104 279.761 40.2104C278.367 40.2104 277.21 40.7122 276.29 41.7158C275.37 42.6914 274.91 44.1269 274.91 46.0225C274.91 47.8904 275.356 49.3259 276.249 50.3295C277.168 51.3331 278.311 51.8347 279.677 51.8347Z" fill="#3A3B7B"/>
<path d="M298.022 31.9312C296.767 31.9312 295.736 31.5688 294.928 30.844C294.147 30.0914 293.757 29.1714 293.757 28.0843C293.757 26.9692 294.147 26.0493 294.928 25.3245C295.736 24.5719 296.767 24.1956 298.022 24.1956C299.248 24.1956 300.252 24.5719 301.032 25.3245C301.841 26.0493 302.245 26.9692 302.245 28.0843C302.245 29.1714 301.841 30.0914 301.032 30.844C300.252 31.5688 299.248 31.9312 298.022 31.9312ZM301.576 34.3564V57.6887H294.426V34.3564H301.576Z" fill="#3A3B7B"/>
<path d="M312.653 37.6597C313.35 36.5727 314.312 35.6944 315.539 35.0256C316.766 34.3565 318.202 34.022 319.846 34.022C321.77 34.022 323.511 34.5098 325.072 35.4854C326.634 36.4611 327.861 37.8549 328.752 39.6669C329.671 41.4788 330.133 43.5834 330.133 45.9808C330.133 48.3782 329.671 50.4968 328.752 52.3365C327.861 54.1484 326.634 55.5562 325.072 56.5598C323.511 57.5355 321.77 58.0233 319.846 58.0233C318.228 58.0233 316.794 57.6888 315.539 57.0197C314.312 56.3506 313.35 55.4866 312.653 54.4273V68.8113H305.503V34.3565H312.653V37.6597ZM322.857 45.9808C322.857 44.1968 322.355 42.803 321.35 41.7994C320.374 40.7681 319.163 40.2523 317.714 40.2523C316.292 40.2523 315.079 40.7681 314.075 41.7994C313.101 42.8307 312.613 44.2385 312.613 46.0225C312.613 47.8068 313.101 49.2143 314.075 50.2459C315.079 51.2772 316.292 51.793 317.714 51.793C319.135 51.793 320.348 51.2772 321.35 50.2459C322.355 49.1866 322.857 47.7648 322.857 45.9808Z" fill="#3A3B7B"/>
<path d="M342.121 58.0233C340.086 58.0233 338.273 57.6748 336.684 56.978C335.096 56.281 333.84 55.3333 332.921 54.1345C332.002 52.9079 331.485 51.5421 331.374 50.0367H338.441C338.524 50.8451 338.901 51.5002 339.569 52.0019C340.239 52.5037 341.062 52.7546 342.038 52.7546C342.929 52.7546 343.611 52.5874 344.085 52.2528C344.587 51.8906 344.838 51.4305 344.838 50.873C344.838 50.204 344.49 49.7161 343.793 49.4095C343.097 49.075 341.967 48.7127 340.406 48.3223C338.733 47.9321 337.34 47.5279 336.224 47.1097C335.11 46.6638 334.148 45.9808 333.34 45.0609C332.53 44.1132 332.127 42.8447 332.127 41.2559C332.127 39.9178 332.49 38.7052 333.215 37.618C333.966 36.503 335.053 35.6248 336.475 34.9836C337.925 34.3425 339.64 34.022 341.618 34.022C344.545 34.022 346.845 34.7467 348.518 36.1962C350.219 37.6459 351.195 39.5693 351.446 41.9667H344.838C344.727 41.1583 344.364 40.5172 343.751 40.0431C343.166 39.5693 342.386 39.3323 341.41 39.3323C340.574 39.3323 339.932 39.4996 339.486 39.8341C339.041 40.1407 338.818 40.5728 338.818 41.1303C338.818 41.7994 339.166 42.3012 339.863 42.6357C340.588 42.9702 341.702 43.3048 343.208 43.6391C344.935 44.0852 346.343 44.5313 347.43 44.9772C348.518 45.3954 349.465 46.0922 350.273 47.068C351.11 48.0157 351.543 49.298 351.571 50.9149C351.571 52.2808 351.181 53.5073 350.399 54.5946C349.648 55.6538 348.546 56.4902 347.096 57.1033C345.675 57.7167 344.016 58.0233 342.121 58.0233Z" fill="#3A3B7B"/>
<path d="M377.73 34.3567V57.6889H370.58V54.5111C369.855 55.5424 368.865 56.3788 367.612 57.0199C366.384 57.6333 365.02 57.9398 363.513 57.9398C361.729 57.9398 360.153 57.5496 358.789 56.769C357.422 55.9606 356.363 54.8037 355.611 53.2985C354.858 51.7932 354.481 50.0231 354.481 47.988V34.3567H361.589V47.0263C361.589 48.5874 361.994 49.7999 362.802 50.6642C363.61 51.5283 364.698 51.9604 366.064 51.9604C367.458 51.9604 368.559 51.5283 369.367 50.6642C370.175 49.7999 370.58 48.5874 370.58 47.0263V34.3567H377.73Z" fill="#3A3B7B"/>
<path d="M411.384 34.106C414.282 34.106 416.582 34.984 418.283 36.7403C420.01 38.4964 420.875 40.9355 420.875 44.0576V57.6891H413.767V45.0195C413.767 43.5141 413.362 42.3572 412.554 41.5488C411.773 40.7125 410.687 40.2944 409.292 40.2944C407.899 40.2944 406.797 40.7125 405.989 41.5488C405.21 42.3572 404.819 43.5141 404.819 45.0195V57.6891H397.709V45.0195C397.709 43.5141 397.306 42.3572 396.498 41.5488C395.716 40.7125 394.629 40.2944 393.236 40.2944C391.843 40.2944 390.741 40.7125 389.933 41.5488C389.151 42.3572 388.763 43.5141 388.763 45.0195V57.6891H381.612V34.3569H388.763V37.2838C389.488 36.3081 390.435 35.5415 391.606 34.984C392.776 34.3986 394.101 34.106 395.577 34.106C397.334 34.106 398.896 34.4822 400.261 35.2349C401.654 35.9876 402.741 37.0608 403.523 38.4546C404.331 37.1722 405.432 36.1269 406.826 35.3185C408.219 34.5101 409.74 34.106 411.384 34.106Z" fill="#3A3B7B"/>
<path d="M989.837 42.6309H979.298C970.093 42.6309 962.631 50.0932 962.631 59.2984V69.8366C977.159 68.7593 988.759 57.1595 989.837 42.6309Z" fill="#775732"/>
<path d="M958.206 69.8366V59.2984C958.206 50.0932 950.744 42.6309 941.538 42.6309H931C932.077 57.1595 943.677 68.7593 958.206 69.8366Z" fill="#775732"/>
<path d="M989.837 38.2058C988.759 23.6772 977.159 12.0772 962.631 11V21.5383C962.631 30.7435 970.093 38.2058 979.298 38.2058H989.837Z" fill="#775732"/>
<path d="M958.206 11C943.677 12.0772 932.077 23.6772 931 38.2058H941.538C950.744 38.2058 958.206 30.7435 958.206 21.5383V11Z" fill="#775732"/>
<path d="M950.953 40.4184C955.043 38.3751 958.375 35.0423 960.418 30.9529C962.462 35.0423 965.794 38.3751 969.884 40.4184C965.794 42.4616 962.462 45.7943 960.418 49.8838C958.375 45.7943 955.043 42.4616 950.953 40.4184Z" fill="#CA9352"/>
<path d="M667.419 71.3569H672.957V50.4704H667.419V71.3569ZM667.419 47.2132H672.957V42.2461H667.419V47.2132Z" fill="black"/>
<path d="M676.524 78.1972H682.062V68.9958H682.143C683.324 70.7871 685.237 71.9679 688.169 71.9679C693.543 71.9679 697.207 67.6929 697.207 60.9343C697.207 54.4198 693.665 49.9006 688.128 49.9006C685.278 49.9006 683.324 51.2442 681.98 53.0762H681.858V50.4707H676.524V78.1972ZM686.988 67.3671C683.69 67.3671 681.939 64.8836 681.939 61.0971C681.939 57.3514 683.324 54.3791 686.784 54.3791C690.205 54.3791 691.589 57.1477 691.589 61.0971C691.589 65.0464 689.797 67.3671 686.988 67.3671Z" fill="black"/>
<path d="M708.253 71.9679C713.464 71.9679 717.047 69.4435 717.047 65.2499C717.047 60.3642 713.179 59.3872 709.678 58.6543C706.705 58.0436 703.937 57.8806 703.937 56.0892C703.937 54.5828 705.362 53.7684 707.52 53.7684C709.881 53.7684 711.306 54.5828 711.55 56.8221H716.558C716.151 52.6285 713.098 49.9006 707.601 49.9006C702.838 49.9006 699.092 52.0585 699.092 56.5777C699.092 61.1378 702.756 62.1557 706.502 62.8886C709.352 63.4584 711.998 63.6621 711.998 65.6572C711.998 67.1229 710.614 68.0592 708.171 68.0592C705.688 68.0592 703.977 67.0007 703.611 64.5985H698.481C698.807 69.0365 702.186 71.9679 708.253 71.9679Z" fill="black"/>
<path d="M738.07 71.3572V50.4707H732.533V62.5221C732.533 65.2907 730.945 67.245 728.339 67.245C725.978 67.245 724.878 65.9014 724.878 63.4584V50.4707H719.382V64.395C719.382 68.9549 721.988 71.9272 726.629 71.9272C729.561 71.9272 731.189 70.8278 732.614 68.9142H732.736V71.3572H738.07Z" fill="black"/>
<path d="M741.651 71.3571H747.189V59.2241C747.189 56.4556 748.695 54.6642 750.934 54.6642C752.97 54.6642 754.151 55.8855 754.151 58.2471V71.3571H759.688V59.2241C759.688 56.4556 761.113 54.6642 763.434 54.6642C765.469 54.6642 766.65 55.8855 766.65 58.2471V71.3571H772.187V57.3107C772.187 52.7506 769.704 49.9006 765.307 49.9006C762.66 49.9006 760.462 51.2849 759.037 53.5649H758.955C757.937 51.3663 755.82 49.9006 753.174 49.9006C750.283 49.9006 748.247 51.3663 747.107 53.28H746.985V50.4707H741.651V71.3571Z" fill="black"/>
<path d="M667.5 35.5832H673.038V6.47241H667.5V35.5832Z" fill="black"/>
<path d="M686.577 36.1942C693.051 36.1942 697.489 31.3899 697.489 25.1605C697.489 18.9312 693.051 14.127 686.577 14.127C680.104 14.127 675.666 18.9312 675.666 25.1605C675.666 31.3899 680.104 36.1942 686.577 36.1942ZM686.577 31.9599C683.157 31.9599 681.284 29.232 681.284 25.1605C681.284 21.0891 683.157 18.3205 686.577 18.3205C689.956 18.3205 691.87 21.0891 691.87 25.1605C691.87 29.232 689.956 31.9599 686.577 31.9599Z" fill="black"/>
<path d="M709.264 42.7086C712.358 42.7086 715.045 41.9757 716.796 40.347C718.343 38.922 719.28 36.927 719.28 33.9956V14.6969H713.946V16.8955H713.865C712.602 15.1448 710.689 14.127 708.083 14.127C702.79 14.127 699.044 18.117 699.044 24.3463C699.044 30.657 703.605 34.3212 708.246 34.3212C710.893 34.3212 712.48 33.2628 713.702 31.8785H713.824V34.1584C713.824 37.0084 712.318 38.5148 709.182 38.5148C706.617 38.5148 705.437 37.4971 704.989 36.1942H699.492C700.062 40.2656 703.564 42.7086 709.264 42.7086ZM709.182 29.8835C706.332 29.8835 704.459 27.807 704.459 24.2649C704.459 20.7635 706.332 18.5648 709.142 18.5648C712.48 18.5648 714.109 21.1705 714.109 24.2242C714.109 27.3184 712.684 29.8835 709.182 29.8835Z" fill="black"/>
<path d="M732.739 36.1942C739.212 36.1942 743.65 31.3899 743.65 25.1605C743.65 18.9312 739.212 14.127 732.739 14.127C726.265 14.127 721.827 18.9312 721.827 25.1605C721.827 31.3899 726.265 36.1942 732.739 36.1942ZM732.739 31.9599C729.319 31.9599 727.446 29.232 727.446 25.1605C727.446 21.0891 729.319 18.3205 732.739 18.3205C736.118 18.3205 738.032 21.0891 738.032 25.1605C738.032 29.232 736.118 31.9599 732.739 31.9599Z" fill="black"/>
<path d="M748.504 27.6032H772.444V22.8396H748.504V27.6032Z" fill="black"/>
<path d="M774.2 46.9229C774.2 45.9859 774.959 45.2263 775.897 45.2263H779.289C780.226 45.2263 780.985 45.9859 780.985 46.9229C780.985 47.8596 780.226 48.6192 779.289 48.6192H775.897C774.959 48.6192 774.2 47.8596 774.2 46.9229Z" fill="black"/>
<path fill-rule="evenodd" clip-rule="evenodd" d="M611.5 0C633.868 0 652 18.1325 652 40.5C652 62.8675 633.868 81 611.5 81C589.132 81 571 62.8675 571 40.5C571 18.1325 589.132 0 611.5 0ZM610.036 3.03059C605.416 3.68082 601.016 7.39344 597.601 13.6027C596.611 15.4038 595.717 17.3937 594.938 19.5421C599.581 18.3752 604.683 17.6872 610.036 17.5808V3.03059ZM591.515 20.5149C592.483 17.4749 593.668 14.678 595.036 12.1918C596.729 9.1137 598.738 6.4556 601.002 4.41403C588.692 7.98909 578.989 17.692 575.414 30.0018C577.456 27.738 580.114 25.7288 583.192 24.0359C585.678 22.6685 588.475 21.4834 591.515 20.5149ZM590.542 23.9377C589.375 28.5815 588.687 33.6826 588.581 39.0361H574.031C574.681 34.4157 578.393 30.0162 584.603 26.6012C586.404 25.6106 588.394 24.7167 590.542 23.9377ZM591.509 39.0361C591.63 33.1938 592.471 27.7089 593.863 22.8627C598.709 21.4711 604.194 20.6299 610.036 20.509V26.8329C607.857 32.4126 603.411 36.8574 597.831 39.0361H591.509ZM588.581 41.9639H574.031C574.681 46.5843 578.393 50.9836 584.603 54.3988C586.404 55.3894 588.394 56.2833 590.542 57.0623C589.375 52.4185 588.687 47.3174 588.581 41.9639ZM593.863 58.1373C592.471 53.2911 591.63 47.8062 591.509 41.9639H597.831C603.411 44.1426 607.857 48.5874 610.036 54.1671V60.491C604.194 60.3701 598.709 59.5289 593.863 58.1373ZM591.515 60.4851C588.475 59.5166 585.678 58.3315 583.192 56.9641C580.114 55.2712 577.456 53.262 575.414 50.9982C578.989 63.308 588.692 73.011 601.002 76.5859C598.738 74.5443 596.729 71.8863 595.036 68.8081C593.668 66.322 592.483 63.5251 591.515 60.4851ZM610.036 77.9694C605.416 77.3192 601.016 73.6065 597.601 67.3973C596.611 65.5962 595.717 63.6063 594.938 61.4579C599.581 62.6247 604.683 63.3128 610.036 63.4192V77.9694ZM621.998 76.5859C624.262 74.5443 626.271 71.8863 627.964 68.8081C629.332 66.322 630.517 63.5251 631.485 60.4851C634.525 59.5166 637.322 58.3315 639.808 56.9641C642.886 55.2712 645.544 53.262 647.586 50.9982C644.011 63.308 634.308 73.011 621.998 76.5859ZM628.062 61.4579C627.283 63.6063 626.389 65.5962 625.399 67.3973C621.984 73.6065 617.584 77.3192 612.964 77.9694V63.4192C618.317 63.3128 623.419 62.6247 628.062 61.4579ZM632.458 57.0623C634.606 56.2833 636.596 55.3894 638.397 54.3988C644.607 50.9836 648.319 46.5843 648.969 41.9639H634.419C634.313 47.3174 633.625 52.4185 632.458 57.0623ZM631.491 41.9639C631.37 47.8062 630.529 53.2911 629.137 58.1373C624.291 59.5289 618.806 60.3701 612.964 60.491V54.1718C615.143 48.5901 619.589 44.1432 625.17 41.9639H631.491ZM634.419 39.0361H648.969C648.319 34.4157 644.607 30.0162 638.397 26.6012C636.596 25.6106 634.606 24.7167 632.458 23.9377C633.625 28.5815 634.313 33.6826 634.419 39.0361ZM629.137 22.8627C630.529 27.7089 631.37 33.1938 631.491 39.0361H625.17C619.589 36.8568 615.143 32.4099 612.964 26.8282V20.509C618.806 20.6299 624.291 21.4711 629.137 22.8627ZM631.485 20.5149C634.525 21.4834 637.322 22.6685 639.808 24.0359C642.886 25.7288 645.544 27.738 647.586 30.0018C644.011 17.692 634.308 7.98909 621.998 4.41403C624.262 6.4556 626.271 9.1137 627.964 12.1918C629.332 14.678 630.517 17.4749 631.485 20.5149ZM612.964 3.03059C617.584 3.68082 621.984 7.39344 625.399 13.6027C626.389 15.4039 627.283 17.3937 628.062 19.5421C623.419 18.3752 618.317 17.6872 612.964 17.5808V3.03059Z" fill="black"/>
<path d="M1319.94 75.3802C1321.48 75.3802 1322.39 74.2158 1322.39 72.3954C1322.39 70.5081 1321.41 69.4105 1319.98 69.4105C1319.15 69.4105 1318.58 69.775 1318.15 70.3542H1318.13V67.3713H1317.24V75.2142H1318.13V74.469H1318.15C1318.62 75.1048 1319.18 75.3802 1319.94 75.3802ZM1319.88 74.633C1318.67 74.633 1318.08 73.6792 1318.08 72.4055C1318.08 71.1783 1318.65 70.1679 1319.89 70.1679C1320.96 70.1679 1321.48 71.1338 1321.48 72.4055C1321.48 73.6893 1320.96 74.633 1319.88 74.633ZM1323.89 77.0913C1324.58 77.0913 1325.02 76.8483 1325.48 75.6738L1327.91 69.5421H1326.97L1325.67 73.0758C1325.5 73.5476 1325.3 74.1834 1325.3 74.1834H1325.28C1325.28 74.1834 1325.07 73.5476 1324.89 73.0758L1323.55 69.5421H1322.59L1324.8 75.0501L1324.58 75.609C1324.37 76.1578 1324.11 76.3016 1323.74 76.3016C1323.53 76.3121 1323.32 76.2704 1323.14 76.1801H1323.09V76.9698C1323.33 77.0691 1323.55 77.0913 1323.89 77.0913ZM1330.18 75.2142H1331.68V67.3713H1330.18V75.2142ZM1335.32 75.3802C1337.07 75.3802 1338.27 74.0842 1338.27 72.4055C1338.27 70.7268 1337.07 69.4328 1335.32 69.4328C1333.58 69.4328 1332.38 70.7288 1332.38 72.4055C1332.38 74.0862 1333.58 75.3802 1335.32 75.3802ZM1335.32 74.2381C1334.4 74.2381 1333.9 73.503 1333.9 72.4055C1333.9 71.31 1334.4 70.5627 1335.32 70.5627C1336.24 70.5627 1336.75 71.31 1336.75 72.4055C1336.75 73.503 1336.24 74.2381 1335.32 74.2381ZM1341.44 77.1339C1342.27 77.1339 1343 76.9374 1343.47 76.498C1343.88 76.1133 1344.14 75.5766 1344.14 74.7869V69.5867H1342.7V70.18H1342.68C1342.34 69.7082 1341.82 69.4328 1341.12 69.4328C1339.69 69.4328 1338.68 70.5081 1338.68 72.1868C1338.68 73.8878 1339.91 74.874 1341.16 74.874C1341.88 74.874 1342.31 74.5905 1342.63 74.2158H1342.67V74.8314C1342.67 75.5989 1342.26 76.0059 1341.42 76.0059C1340.73 76.0059 1340.41 75.7305 1340.29 75.3782H1338.81C1338.96 76.4757 1339.9 77.1339 1341.44 77.1339ZM1341.42 73.6792C1340.65 73.6792 1340.14 73.1203 1340.14 72.1645C1340.14 71.2209 1340.65 70.6296 1341.41 70.6296C1342.31 70.6296 1342.74 71.3302 1342.74 72.1544C1342.74 72.9887 1342.36 73.6792 1341.42 73.6792H1341.42ZM1347.76 75.3802C1349.51 75.3802 1350.7 74.0842 1350.7 72.4055C1350.7 70.7268 1349.51 69.4328 1347.76 69.4328C1346.02 69.4328 1344.82 70.7288 1344.82 72.4055C1344.82 74.0862 1346.02 75.3802 1347.76 75.3802ZM1347.76 74.2381C1346.84 74.2381 1346.34 73.503 1346.34 72.4055C1346.34 71.31 1346.84 70.5627 1347.76 70.5627C1348.67 70.5627 1349.19 71.31 1349.19 72.4055C1349.19 73.503 1348.67 74.2381 1347.76 74.2381ZM1351.4 75.2142H1352.89V69.5867H1351.4V75.2142ZM1351.4 68.7099H1352.89V67.3713H1351.4V68.7099ZM1353.85 77.0569H1355.34V74.5803H1355.36C1355.68 75.0643 1356.2 75.3822 1356.99 75.3822C1358.44 75.3822 1359.42 74.228 1359.42 72.4075C1359.42 70.6518 1358.47 69.4348 1356.98 69.4348C1356.65 69.4295 1356.33 69.505 1356.04 69.6545C1355.75 69.804 1355.51 70.0228 1355.32 70.2914H1355.29V69.5887H1353.85V77.061V77.0569ZM1356.67 74.1409C1355.78 74.1409 1355.31 73.4706 1355.31 72.45C1355.31 71.4416 1355.68 70.6397 1356.62 70.6397C1357.54 70.6397 1357.91 71.3849 1357.91 72.45C1357.91 73.5152 1357.43 74.1409 1356.67 74.1409ZM1362.4 75.3802C1363.8 75.3802 1364.77 74.6998 1364.77 73.5699C1364.77 72.2536 1363.73 71.9904 1362.78 71.7919C1361.98 71.6279 1361.24 71.5833 1361.24 71.1014C1361.24 70.6964 1361.62 70.4736 1362.2 70.4736C1362.84 70.4736 1363.22 70.6964 1363.29 71.2978H1364.64C1364.53 70.1679 1363.71 69.4348 1362.22 69.4348C1360.94 69.4348 1359.93 70.014 1359.93 71.233C1359.93 72.4602 1360.92 72.7356 1361.93 72.934C1362.7 73.0859 1363.41 73.1406 1363.41 73.6792C1363.41 74.0741 1363.04 74.3272 1362.38 74.3272C1361.71 74.3272 1361.25 74.0417 1361.15 73.3937H1359.77C1359.86 74.5884 1360.77 75.3802 1362.4 75.3802ZM1370.44 75.2142V69.5867H1368.94V72.8348C1368.94 73.58 1368.51 74.1065 1367.81 74.1065C1367.18 74.1065 1366.88 73.744 1366.88 73.0859V69.5867H1365.4V73.339C1365.4 74.5682 1366.1 75.3681 1367.35 75.3681C1368.14 75.3681 1368.58 75.0724 1368.97 74.5581H1369V75.2142H1370.44ZM1371.4 75.2142H1372.89V71.9478C1372.89 71.2006 1373.3 70.7187 1373.9 70.7187C1374.45 70.7187 1374.77 71.0487 1374.77 71.6846V75.2162H1376.26V71.9478C1376.26 71.2006 1376.64 70.7187 1377.27 70.7187C1377.82 70.7187 1378.14 71.0487 1378.14 71.6846V75.2162H1379.63V71.4315C1379.63 70.2023 1378.96 69.4348 1377.77 69.4348C1377.06 69.4348 1376.47 69.8074 1376.09 70.423H1376.06C1375.93 70.1241 1375.71 69.8713 1375.43 69.6957C1375.15 69.5201 1374.83 69.4294 1374.5 69.4348C1374.18 69.4265 1373.85 69.5067 1373.56 69.667C1373.28 69.8273 1373.04 70.0618 1372.87 70.3461H1372.84V69.5887H1371.4V75.2182V75.2142Z" fill="#E5708C"/>
<path d="M1379.92 4.35111C1379.92 1.95553 1381.87 0.011531 1384.26 0.011531H1387.15C1388.31 0.011531 1389.41 0.468735 1390.22 1.28256C1391.04 2.09639 1391.49 3.20018 1391.49 4.35111C1391.49 5.50203 1391.04 6.60582 1390.22 7.41965C1389.41 8.23348 1388.31 8.69068 1387.15 8.69068H1384.26C1383.69 8.69068 1383.13 8.57842 1382.6 8.36031C1382.07 8.1422 1381.6 7.82252 1381.19 7.41953C1380.79 7.01653 1380.47 6.53813 1380.25 6.01164C1380.03 5.48515 1379.92 4.92089 1379.92 4.35111ZM1258.44 28.9366C1258.44 44.9098 1245.49 57.8597 1229.52 57.8597C1213.55 57.8597 1200.6 44.9098 1200.6 28.9366C1200.6 12.9594 1213.55 0.013556 1229.52 0.013556C1245.49 0.013556 1258.44 12.9594 1258.44 28.9366ZM1194.95 28.7929C1196.55 28.7929 1197.86 30.0889 1197.7 31.6805C1197.15 37.1274 1195.07 42.3073 1191.7 46.6182C1188.33 50.9291 1183.8 54.194 1178.64 56.0334C1173.49 57.8729 1167.91 58.2113 1162.57 57.0094C1157.23 55.8075 1152.34 53.1146 1148.47 49.2437C1144.6 45.3729 1141.91 40.4829 1140.71 35.1422C1139.5 29.8016 1139.84 24.2294 1141.68 19.0735C1143.52 13.9175 1146.79 9.38942 1151.1 6.01547C1155.41 2.64152 1160.59 0.560255 1166.03 0.013556C1167.62 -0.148444 1168.92 1.16376 1168.92 2.75946V25.8991C1168.92 27.4989 1170.22 28.7929 1171.82 28.7929H1194.95ZM1298.94 63.6451C1301.24 63.6451 1303.44 64.5593 1305.07 66.1866C1306.7 67.8139 1307.61 70.0209 1307.61 72.3223C1307.61 74.6236 1306.7 76.8306 1305.07 78.4579C1303.44 80.0852 1301.24 80.9994 1298.94 80.9994H1284.47C1282.17 80.9994 1279.97 80.0852 1278.34 78.4579C1276.71 76.8306 1275.8 74.6236 1275.8 72.3223C1275.8 70.0209 1276.71 67.8139 1278.34 66.1866C1279.97 64.5593 1282.17 63.6451 1284.47 63.6451H1298.94ZM1290.26 57.8597C1306.23 57.8597 1319.18 44.9098 1319.18 28.9366C1319.19 24.0299 1317.94 19.2029 1315.56 14.9135L1320.34 10.1345C1320.89 9.58377 1321.33 8.93001 1321.62 8.21054C1321.92 7.49107 1322.08 6.71999 1322.08 5.94132C1322.08 5.16266 1321.92 4.39165 1321.62 3.67233C1321.33 2.953 1320.89 2.29945 1320.34 1.74898C1319.79 1.19851 1319.13 0.761909 1318.41 0.4641C1317.69 0.16629 1316.92 0.0131063 1316.14 0.0132943C1315.37 0.0134824 1314.59 0.167039 1313.88 0.465196C1313.16 0.763353 1312.5 1.20027 1311.95 1.75101L1307.78 5.92251C1302.75 2.07887 1296.59 0.00134159 1290.26 0.011531C1274.29 0.013556 1261.34 12.9594 1261.34 28.9366C1261.34 44.9098 1274.29 57.8597 1290.26 57.8597ZM1379.92 28.9366C1379.92 44.9098 1366.97 57.8597 1351 57.8597C1335.02 57.8597 1322.08 44.9098 1322.08 28.9366C1322.08 12.9594 1335.02 0.013556 1351 0.013556C1366.97 0.013556 1379.92 12.9614 1379.92 28.9366Z" fill="url(#paint1_linear_45_2588)"/>
</g>
<defs>
<linearGradient id="paint0_linear_45_2588" x1="173.518" y1="29.4226" x2="111.668" y2="29.4226" gradientUnits="userSpaceOnUse">
<stop stop-color="#64C2DB"/>
<stop offset="0.510417" stop-color="#7476ED"/>
<stop offset="1" stop-color="#E56F8C"/>
</linearGradient>
<linearGradient id="paint1_linear_45_2588" x1="1140" y1="32.3994" x2="1380.97" y2="32.3994" gradientUnits="userSpaceOnUse">
<stop stop-color="#64C2DB"/>
<stop offset="0.307" stop-color="#7476ED"/>
<stop offset="0.604" stop-color="#C994DF"/>
<stop offset="1" stop-color="#E56F8C"/>
</linearGradient>
<clipPath id="clip0_45_2588">
<rect width="1391" height="81" fill="white"/>
</clipPath>
</defs>
</svg>


